<svg width="117" height="20" viewBox="0 0 117 20" fill="none" xmlns="http://www.w3.org/2000/svg">
<g clip-path="url(#clip0_1_29)">
<path d="M59.3404 8.97738H54.2932V10.2801C54.2935 10.4791 54.3755 10.6699 54.5213 10.8107C54.667 10.9514 54.8646 11.0306 55.0708 11.0309H57.8805V11.7044C57.5095 12.3486 56.9579 12.8787 56.289 13.2339C55.6201 13.589 54.861 13.7547 54.0989 13.712C53.5389 13.7335 52.9803 13.6419 52.459 13.4432C51.9377 13.2445 51.465 12.943 51.0711 12.5579C50.6773 12.1728 50.3709 11.7127 50.1717 11.2068C49.9724 10.701 49.8846 10.1606 49.9138 9.62008C49.9138 7.22116 51.5988 5.54603 54.0122 5.54603C54.6746 5.53304 55.33 5.67833 55.9202 5.96898C56.5104 6.25963 57.0171 6.68662 57.3951 7.21198L57.4998 7.36711L59.9988 6.72657L59.8308 6.43954C59.2517 5.44301 58.4056 4.61519 57.3813 4.04279C56.3571 3.47039 55.1922 3.17447 54.0088 3.18603C52.2539 3.16895 50.5633 3.82328 49.3064 5.00603C48.6795 5.61072 48.1845 6.33055 47.8505 7.12303C47.5164 7.9155 47.3502 8.76456 47.3616 9.62008C47.3501 10.4758 47.5163 11.325 47.8503 12.1177C48.1843 12.9104 48.6794 13.6304 49.3064 14.2352C50.5634 15.4177 52.2539 16.072 54.0088 16.0552C54.0609 16.0552 54.1135 16.0552 54.1555 16.0552H54.2249L54.3061 16.052C55.7628 16.0057 57.163 15.4967 58.2897 14.6039C59.0457 14.005 59.6481 13.2454 60.0497 12.3844L60.0732 12.3341V9.72981C60.0732 9.53738 59.9967 9.35229 59.8596 9.2127C59.7224 9.0731 59.535 8.98965 59.336 8.97954" fill="black"/>
<path d="M79.2725 13.9127C76.8603 13.9127 75.1747 12.237 75.1747 9.83809C75.1747 7.43917 76.8597 5.76295 79.2725 5.76295C81.6948 5.76295 83.3871 7.43863 83.3871 9.83809C83.3871 12.2375 81.6948 13.9127 79.2725 13.9127ZM79.2725 3.40349C77.5176 3.38627 75.827 4.0404 74.5701 5.22295C73.9431 5.82779 73.448 6.5478 73.114 7.34047C72.7799 8.13313 72.6138 8.98239 72.6253 9.83809C72.6139 10.6936 72.7801 11.5427 73.1141 12.3351C73.4482 13.1276 73.9432 13.8474 74.5701 14.4521C75.8272 15.6344 77.5177 16.2885 79.2725 16.2716C81.0291 16.2875 82.7214 15.6339 83.9821 14.4527C84.6111 13.8489 85.1081 13.1292 85.4436 12.3364C85.7791 11.5437 85.9463 10.6939 85.9353 9.83755C85.9464 8.9811 85.7793 8.13123 85.4438 7.33835C85.1082 6.54548 84.6112 5.82575 83.9821 5.22187C82.7216 4.0404 81.0292 3.38679 79.2725 3.40295" fill="black"/>
<path d="M85.9617 4.39207V5.91585H89.9173V16.0337H92.3939V5.91585H95.6083C95.8144 5.91557 96.0119 5.83635 96.1576 5.6956C96.3033 5.55484 96.3852 5.36403 96.3853 5.16504V3.64126H86.7398C86.5337 3.64154 86.3361 3.72074 86.1903 3.86148C86.0445 4.00222 85.9625 4.19303 85.9622 4.39207" fill="black"/>
<path d="M98.3912 4.39207V16.0337H100.093C100.299 16.0335 100.496 15.9548 100.642 15.8145C100.787 15.6743 100.869 15.4841 100.87 15.2856V3.64126H99.1672C98.9611 3.64169 98.7636 3.72094 98.618 3.86167C98.4724 4.0024 98.3904 4.19312 98.3901 4.39207" fill="black"/>
<path d="M108.199 8.62792C108.05 8.58107 107.902 8.53531 107.755 8.49062C106.412 8.07603 105.25 7.71927 105.25 6.91765C105.25 5.9036 106.323 5.54252 107.326 5.54252C107.901 5.51676 108.466 5.69115 108.918 6.03393C109.371 6.3767 109.681 6.86506 109.792 7.41008L109.848 7.67603L111.528 7.2317C111.68 7.18024 111.812 7.0844 111.905 6.95743C111.998 6.83047 112.048 6.67867 112.048 6.52306C112.048 6.44161 112.034 6.3607 112.007 6.2836C112.004 6.27333 112 6.26468 111.996 6.25495C111.993 6.24522 111.987 6.23224 111.982 6.22143C111.603 5.35848 110.962 4.62696 110.143 4.12368C109.324 3.62041 108.366 3.36912 107.396 3.40306C104.74 3.40306 102.736 4.94252 102.736 6.98522C102.736 9.27116 104.94 9.98954 106.258 10.4193C106.454 10.4804 106.654 10.5414 106.854 10.6014C108.371 11.0598 109.804 11.4917 109.804 12.5539C109.804 13.4441 108.893 14.0674 107.589 14.0674C106.934 14.109 106.286 13.9175 105.767 13.5292C105.248 13.1408 104.894 12.5823 104.772 11.9593L104.728 11.6776L102.942 12.1501C102.801 12.2054 102.681 12.3008 102.599 12.4236C102.516 12.5464 102.474 12.6907 102.479 12.8371C102.482 12.9371 102.503 13.0359 102.541 13.129C102.911 14.0931 103.589 14.9181 104.478 15.4841C105.367 16.0501 106.42 16.3275 107.483 16.276C110.338 16.276 112.335 14.7117 112.335 12.4733C112.335 9.91116 109.943 9.17116 108.198 8.6317" fill="black"/>
<path d="M40.4538 7.35746L42.4244 11.2807H38.4833L40.4538 7.35746ZM41.2684 3.64178H39.6393L33.3325 16.0342H35.5947C35.7408 16.0337 35.8838 15.9939 36.0076 15.9191C36.1315 15.8443 36.2312 15.7376 36.2956 15.611L37.2663 13.6829C37.2882 13.6441 37.3207 13.6119 37.3601 13.5895C37.3995 13.5671 37.4445 13.5555 37.4902 13.5558H43.4242C43.4599 13.556 43.4953 13.5635 43.5278 13.5779C43.5603 13.5922 43.5893 13.6131 43.6128 13.6391L44.6378 15.6521C44.7057 15.768 44.8042 15.8645 44.9233 15.9317C45.0424 15.9988 45.1778 16.0342 45.3158 16.0342H47.5802L41.3411 3.78341L41.2684 3.64178Z" fill="black"/>
<path d="M71.3597 7.71795C71.3597 5.20498 69.4462 3.6439 66.3662 3.6439H62.8545C62.6484 3.64404 62.4508 3.72312 62.305 3.86377C62.1592 4.00443 62.0772 4.19518 62.0769 4.39417V15.2855C62.0772 15.4846 62.1592 15.6754 62.305 15.8161C62.4507 15.9569 62.6483 16.036 62.8545 16.0363H64.5552V5.91579H66.5957C68.0036 5.91579 68.8108 6.57201 68.8108 7.71579C68.8108 8.85957 68.0036 9.51579 66.5957 9.51579H65.0948L69.0432 15.6639C69.0482 15.672 69.0532 15.6796 69.0583 15.6871C69.1285 15.7932 69.2253 15.8804 69.3397 15.9406C69.4541 16.0009 69.5824 16.0324 69.7127 16.032H72.0812L69.0225 11.2958C69.743 10.9987 70.3526 10.4967 70.7702 9.85666C71.1877 9.21659 71.3933 8.46886 71.3597 7.71309" fill="black"/>
<path d="M17.2726 13.8281C17.3797 13.6404 17.4872 13.4524 17.595 13.2643C17.7014 13.0783 17.8574 12.9231 18.047 12.815C18.2365 12.7069 18.4525 12.6498 18.6727 12.6497H25.4805C24.8132 11.4811 24.1455 10.3124 23.4775 9.14379H16.8913C16.6758 9.14369 16.4641 9.19947 16.2785 9.30529C16.0929 9.41112 15.9401 9.56311 15.8361 9.74541L15.5069 10.3216L15.1794 10.8951C15.0745 11.0788 14.9205 11.2319 14.7334 11.3384C14.5463 11.4449 14.333 11.5009 14.1158 11.5005H3.8573L1.85376 15.0054H15.8966C16.1093 15.0054 16.3182 14.9502 16.5014 14.8456C16.6845 14.741 16.8353 14.5909 16.9378 14.4108C17.0498 14.2166 17.1617 14.0218 17.2737 13.8265" fill="#037662"/>
<path d="M14.5912 9.1418L14.9204 8.56451C15.0245 8.38234 15.1774 8.23049 15.363 8.12477C15.5486 8.01905 15.7601 7.96333 15.9756 7.96342H22.8025C22.1307 6.78469 21.4589 5.60667 20.7872 4.42937H14.2106C13.9925 4.42944 13.7785 4.48593 13.5907 4.59298C13.403 4.70002 13.2484 4.8537 13.143 5.03802C13.0344 5.22793 12.9262 5.41784 12.8183 5.60775L12.4897 6.18343C12.3853 6.36609 12.232 6.51839 12.0459 6.62448C11.8599 6.73057 11.6477 6.78658 11.4317 6.78667H6.54845C5.87668 7.96505 5.20379 9.14306 4.52979 10.3207H13.1995C13.4169 10.3207 13.6302 10.2644 13.8173 10.1576C14.0044 10.0508 14.1584 9.89753 14.2632 9.7137L14.5901 9.14234" fill="#037662"/>
<path d="M11.9036 4.42703L12.2277 3.85892C12.3334 3.67404 12.4885 3.51991 12.6768 3.41258C12.8652 3.30524 13.0799 3.24864 13.2986 3.24865H20.0902C20.0925 3.24862 20.0948 3.24802 20.0967 3.24692C20.0987 3.24582 20.1004 3.24425 20.1016 3.24235C20.1027 3.24046 20.1034 3.2383 20.1034 3.23609C20.1035 3.23388 20.103 3.23169 20.102 3.22973L18.4533 0.344324C18.3469 0.158163 18.1908 0.00295329 18.0012 -0.10514C17.8115 -0.213234 17.5953 -0.270257 17.3751 -0.270271H11.2995C11.0811 -0.270332 10.8667 -0.213788 10.6786 -0.106538C10.4905 0.000711143 10.3357 0.154735 10.2303 0.339459C9.23085 2.08865 8.23161 3.83784 7.23253 5.58703C7.23145 5.58895 7.2309 5.59112 7.23096 5.59332C7.23102 5.59551 7.23168 5.59765 7.23288 5.59951C7.23407 5.60138 7.23576 5.60291 7.23776 5.60394C7.23976 5.60498 7.24202 5.60548 7.24429 5.6054H10.5102C10.7283 5.60551 10.9424 5.54909 11.1302 5.44203C11.318 5.33496 11.4725 5.18119 11.5778 4.99676L11.903 4.42703" fill="#037662"/>
<path d="M28.5277 17.9801L26.1558 13.826H19.5987C19.3754 13.826 19.1561 13.8838 18.9637 13.9934C18.7713 14.103 18.6129 14.2604 18.5049 14.4493L18.188 15.0044C18.0761 15.1986 17.9654 15.3925 17.8561 15.586C17.7525 15.7664 17.6007 15.9166 17.4166 16.0212C17.2325 16.1258 17.0228 16.1808 16.8092 16.1806H1.17992L0.154351 17.9768C0.05195 18.1561 -0.000283669 18.358 0.00281588 18.5627C0.00591543 18.7674 0.0642482 18.9677 0.172033 19.144C0.279818 19.3203 0.433334 19.4664 0.617447 19.5679C0.801561 19.6694 1.00991 19.7228 1.22191 19.7228H27.4573C27.6698 19.7228 27.8787 19.6693 28.0632 19.5676C28.2478 19.4659 28.4017 19.3195 28.5097 19.1429C28.6178 18.9662 28.6763 18.7654 28.6794 18.5603C28.6826 18.3551 28.6303 18.1527 28.5277 17.973" fill="#037662"/>
</g>
<defs>
<clipPath id="clip0_1_29">
<rect width="117" height="20" fill="white"/>
</clipPath>
</defs>
</svg>
